<?xml version="1.0" standalone="no"?><!DOCTYPE svg PUBLIC "-//W3C//DTD SVG 1.1//EN" "http://www.w3.org/Graphics/SVG/1.1/DTD/svg11.dtd"><svg t="1768803684507" class="icon" viewBox="0 0 1024 1024" version="1.1" xmlns="http://www.w3.org/2000/svg" p-id="34633" xmlns:xlink="http://www.w3.org/1999/xlink" width="200" height="200"><path d="M832 896H0V128h832v768zM64 832h704V192H64v640z" fill="#2c2c2c" p-id="34634" data-spm-anchor-id="a313x.search_index.0.i7.34a13a81zdKtGs" class="selected"></path><path d="M64 192h704v64H64z" fill="#2c2c2c" p-id="34635" data-spm-anchor-id="a313x.search_index.0.i8.34a13a81zdKtGs" class="selected"></path><path d="M64 256h704v576H64z" fill="#FFFFFF" p-id="34636"></path><path d="M64 448h512v64H64zM64 640h256v64H64z" fill="#2c2c2c" p-id="34637" data-spm-anchor-id="a313x.search_index.0.i10.34a13a81zdKtGs" class="selected"></path><path d="M256 256h64v576H256zM512 256h64v192H512z" fill="#2c2c2c" p-id="34638" data-spm-anchor-id="a313x.search_index.0.i9.34a13a81zdKtGs" class="selected"></path><path d="M947.2 217.6c-38.4-38.4-96-38.4-134.4 0l-454.4 454.4-38.4 153.6c0 12.8 6.4 19.2 19.2 19.2l153.6-38.4 12.8-12.8-134.4-134.4 25.6-25.6L531.2 768l384-384-134.4-134.4 25.6-25.6 134.4 134.4 6.4-6.4c38.4-32 38.4-96 0-134.4z" fill="#2c2c2c" p-id="34639" data-spm-anchor-id="a313x.search_index.0.i11.34a13a81zdKtGs" class="selected"></path></svg>