<?xml version="1.0" standalone="no"?><!DOCTYPE svg PUBLIC "-//W3C//DTD SVG 1.1//EN" "http://www.w3.org/Graphics/SVG/1.1/DTD/svg11.dtd"><svg t="1768804237635" class="icon" viewBox="0 0 1024 1024" version="1.1" xmlns="http://www.w3.org/2000/svg" p-id="35901" xmlns:xlink="http://www.w3.org/1999/xlink" width="200" height="200"><path d="M853.3504 0A170.6496 170.6496 0 0 1 1024 170.6496v682.7008A170.6496 170.6496 0 0 1 853.3504 1024H170.6496A170.6496 170.6496 0 0 1 0 853.3504V170.6496A170.6496 170.6496 0 0 1 170.6496 0h682.7008z" fill="#666666" p-id="35902"></path><path d="M796.9792 153.6H224.8192C185.4976 153.6 153.6512 185.4976 153.6 224.8192v572.16c0 39.3216 31.8976 71.168 71.2192 71.2192h572.5184c39.3216 0 71.168-31.8976 71.2192-71.168V224.4608A71.936 71.936 0 0 0 796.9792 153.6z m10.6496 474.624v169.1136a10.752 10.752 0 0 1-10.6496 10.6496h-140.8v-179.4048h151.4496v-0.3584z m0-235.008v174.4384h-151.0912V393.2672h151.0912z m-211.968 235.008v179.4048H426.496V628.224h169.0624z m0-235.008v174.4384H426.496V393.2672h169.0624zM365.568 628.224v179.4048h-140.8a10.4448 10.4448 0 0 1-10.2912-10.6496v-169.0624H365.568v0.3072z m0-235.008v174.4384H214.528V393.2672H365.568z m442.0096-168.0384v107.52H214.2208v-107.52c0-5.7856 4.5056-10.496 10.24-10.6496h572.5184a10.752 10.752 0 0 1 10.6496 10.6496z" fill="#FFFFFF" p-id="35903"></path></svg>